<svg width="20" height="20" viewBox="0 0 20 20" fill="none" xmlns="http://www.w3.org/2000/svg">
<path d="M12.5568 10.4537C13.017 10.4537 13.3901 10.8268 13.3901 11.2871V16.4565C13.3901 16.9167 13.017 17.2898 12.5568 17.2898H7.55682C7.09658 17.2898 6.72349 16.9167 6.72349 16.4565L6.72349 11.2871C6.72349 10.8268 7.09658 10.4537 7.55682 10.4537L12.5568 10.4537ZM2.0918 7.32055C3.19478 4.01003 6.31847 1.62317 9.9996 1.62317C13.6808 1.62317 16.8045 4.01003 17.9075 7.32055L16.3259 7.84774C15.4435 5.19933 12.9446 3.28984 9.9996 3.28984C7.05471 3.28984 4.55576 5.19933 3.67336 7.84774L2.0918 7.32055ZM5.25493 8.37492C5.91672 6.38862 7.79094 4.9565 9.9996 4.9565C12.2083 4.9565 14.0825 6.38862 14.7443 8.37492L13.1628 8.90208C12.7216 7.57792 11.4721 6.62317 9.9996 6.62317C8.52718 6.62317 7.2777 7.57792 6.8365 8.90208L5.25493 8.37492ZM8.39016 12.1204L8.39016 15.6232H11.7234V12.1204H8.39016Z" fill="#354554"/>
</svg>
